# xmcd CD database file
#
# Track frame offsets:
#	150
#	20533
#	41145
#	58999
#	85575
#	109559
#	139471
#	169814
#	195185
#	211340
#	235602
#	255176
#	277467
#	302427
#
# Disc length: 4319 seconds
#
# Revision: 0
# Processed by: cddbd v1.5.2PL0 Copyright (c) Steve Scherf et al.
# Submitted via: CDex 1.70beta2
#
DISCID=bd10dd0e
DTITLE=Violet Paradise - Violet Paradise
DYEAR=1900
DGENRE=Jazz
TTITLE0=Marc Antoine - Madrid
TTITLE1=David Benoit - Rejoyce
TTITLE2=Larry Carlton - Kid Gloves
TTITLE3=Acoustic Alchemy - Playing For Time
TTITLE4=The Rippingtons - She Likes to Watch
TTITLE5=Jimmy Dfudlu - Echoes From The East
TTITLE6=Down To The Bone - Electra Glide
TTITLE7=Jeff Golub - Droptop
TTITLE8=John Scofield - Freakin' Disco
TTITLE9=Tom Grant - Change 
TTITLE10=Lee Ritenour - A Little Bumpin'
TTITLE11=Special EFX - Ballerina
TTITLE12=Yellowjackets - Homecoming
TTITLE13=Spyro Gyra - Westwood Man
EXTD=
EXTT0=
EXTT1=
EXTT2=
EXTT3=
EXTT4=
EXTT5=
EXTT6=
EXTT7=
EXTT8=
EXTT9=
EXTT10=
EXTT11=
EXTT12=
EXTT13=
PLAYORDER=
